<mxfile host="app.diagrams.net" modified="2024-11-12T08:15:17.464Z" agent="Mozilla/5.0 (Windows NT 10.0; Win64; x64; rv:132.0) Gecko/20100101 Firefox/132.0" etag="sHJqZUQREipRj1cW5f-U" version="23.0.2" type="device">
  <diagram name="Страница — 1" id="ThVHDXyM-_65LVRu_56u">
    <mxGraphModel dx="1434" dy="773" grid="1" gridSize="10" guides="1" tooltips="1" connect="1" arrows="1" fold="1" page="1" pageScale="1" pageWidth="827" pageHeight="1169" math="0" shadow="0">
      <root>
        <mxCell id="0" />
        <mxCell id="1" parent="0" />
        <mxCell id="285GW0ZOClXGAS23mnNM-18" value="" style="rounded=0;whiteSpace=wrap;html=1;" vertex="1" parent="1">
          <mxGeometry x="37.5" y="187.5" width="825" height="505" as="geometry" />
        </mxCell>
        <mxCell id="285GW0ZOClXGAS23mnNM-2" value="" style="whiteSpace=wrap;html=1;aspect=fixed;" vertex="1" parent="1">
          <mxGeometry x="240" y="230" width="420" height="420" as="geometry" />
        </mxCell>
        <mxCell id="285GW0ZOClXGAS23mnNM-5" style="edgeStyle=orthogonalEdgeStyle;rounded=0;orthogonalLoop=1;jettySize=auto;html=1;exitX=0.5;exitY=0.5;exitDx=0;exitDy=0;exitPerimeter=0;" edge="1" parent="1" source="285GW0ZOClXGAS23mnNM-3" target="285GW0ZOClXGAS23mnNM-4">
          <mxGeometry relative="1" as="geometry" />
        </mxCell>
        <mxCell id="285GW0ZOClXGAS23mnNM-3" value="Представитель&lt;br&gt;юридического лица" style="shape=umlActor;verticalLabelPosition=bottom;verticalAlign=top;html=1;outlineConnect=0;" vertex="1" parent="1">
          <mxGeometry x="160" y="330" width="30" height="60" as="geometry" />
        </mxCell>
        <mxCell id="285GW0ZOClXGAS23mnNM-7" style="edgeStyle=orthogonalEdgeStyle;rounded=0;orthogonalLoop=1;jettySize=auto;html=1;" edge="1" parent="1" source="285GW0ZOClXGAS23mnNM-4" target="285GW0ZOClXGAS23mnNM-6">
          <mxGeometry relative="1" as="geometry" />
        </mxCell>
        <mxCell id="285GW0ZOClXGAS23mnNM-4" value="Получить сведения о наличии (отсутствии) месторождений ОПИ" style="ellipse;whiteSpace=wrap;html=1;" vertex="1" parent="1">
          <mxGeometry x="365" y="270" width="170" height="110" as="geometry" />
        </mxCell>
        <mxCell id="285GW0ZOClXGAS23mnNM-15" style="edgeStyle=orthogonalEdgeStyle;rounded=0;orthogonalLoop=1;jettySize=auto;html=1;exitX=0.5;exitY=0.5;exitDx=0;exitDy=0;exitPerimeter=0;" edge="1" parent="1" source="285GW0ZOClXGAS23mnNM-6" target="285GW0ZOClXGAS23mnNM-14">
          <mxGeometry relative="1" as="geometry">
            <Array as="points">
              <mxPoint x="735" y="390" />
              <mxPoint x="450" y="390" />
            </Array>
          </mxGeometry>
        </mxCell>
        <mxCell id="285GW0ZOClXGAS23mnNM-6" value="Оператор какой-то?" style="shape=umlActor;verticalLabelPosition=bottom;verticalAlign=top;html=1;outlineConnect=0;" vertex="1" parent="1">
          <mxGeometry x="720" y="275" width="30" height="60" as="geometry" />
        </mxCell>
        <mxCell id="285GW0ZOClXGAS23mnNM-12" style="edgeStyle=orthogonalEdgeStyle;rounded=0;orthogonalLoop=1;jettySize=auto;html=1;" edge="1" parent="1" source="285GW0ZOClXGAS23mnNM-8" target="285GW0ZOClXGAS23mnNM-3">
          <mxGeometry relative="1" as="geometry" />
        </mxCell>
        <mxCell id="285GW0ZOClXGAS23mnNM-8" value="Отправит письмо-ответ со сведениями о наличии (отсутствии) месторождений ОПИ" style="ellipse;whiteSpace=wrap;html=1;" vertex="1" parent="1">
          <mxGeometry x="365" y="530" width="170" height="110" as="geometry" />
        </mxCell>
        <mxCell id="285GW0ZOClXGAS23mnNM-11" style="edgeStyle=orthogonalEdgeStyle;rounded=0;orthogonalLoop=1;jettySize=auto;html=1;entryX=1;entryY=0.5;entryDx=0;entryDy=0;" edge="1" parent="1" source="285GW0ZOClXGAS23mnNM-10" target="285GW0ZOClXGAS23mnNM-8">
          <mxGeometry relative="1" as="geometry" />
        </mxCell>
        <mxCell id="285GW0ZOClXGAS23mnNM-10" value="Специалист" style="shape=umlActor;verticalLabelPosition=bottom;verticalAlign=top;html=1;outlineConnect=0;" vertex="1" parent="1">
          <mxGeometry x="700" y="455" width="30" height="60" as="geometry" />
        </mxCell>
        <mxCell id="285GW0ZOClXGAS23mnNM-14" value="Назначить специалиста" style="ellipse;whiteSpace=wrap;html=1;" vertex="1" parent="1">
          <mxGeometry x="365" y="400" width="170" height="110" as="geometry" />
        </mxCell>
        <mxCell id="285GW0ZOClXGAS23mnNM-16" style="edgeStyle=orthogonalEdgeStyle;rounded=0;orthogonalLoop=1;jettySize=auto;html=1;entryX=0.5;entryY=0.5;entryDx=0;entryDy=0;entryPerimeter=0;" edge="1" parent="1" source="285GW0ZOClXGAS23mnNM-14" target="285GW0ZOClXGAS23mnNM-10">
          <mxGeometry relative="1" as="geometry" />
        </mxCell>
      </root>
    </mxGraphModel>
  </diagram>
</mxfile>
